<?xml version="1.0" encoding="utf-8" standalone="no"?>
<!DOCTYPE svg PUBLIC "-//W3C//DTD SVG 1.1//EN"
  "http://www.w3.org/Graphics/SVG/1.1/DTD/svg11.dtd">
<svg xmlns:xlink="http://www.w3.org/1999/xlink" width="1914.69875pt" height="401.979375pt" viewBox="0 0 1914.69875 401.979375" xmlns="http://www.w3.org/2000/svg" version="1.1">
 <metadata>
  <rdf:RDF xmlns:dc="http://purl.org/dc/elements/1.1/" xmlns:cc="http://creativecommons.org/ns#" xmlns:rdf="http://www.w3.org/1999/02/22-rdf-syntax-ns#">
   <cc:Work>
    <dc:type rdf:resource="http://purl.org/dc/dcmitype/StillImage"/>
    <dc:date>2026-02-08T18:52:11.194616</dc:date>
    <dc:format>image/svg+xml</dc:format>
    <dc:creator>
     <cc:Agent>
      <dc:title>Matplotlib v3.10.3, https://matplotlib.org/</dc:title>
     </cc:Agent>
    </dc:creator>
   </cc:Work>
  </rdf:RDF>
 </metadata>
 <defs>
  <style type="text/css">*{stroke-linejoin: round; stroke-linecap: butt}</style>
 </defs>
 <g id="figure_1">
  <g id="patch_1">
   <path d="M 0 401.979375 
L 1914.69875 401.979375 
L 1914.69875 0 
L 0 0 
z
" style="fill: #ffffff"/>
  </g>
  <g id="axes_1">
   <g id="patch_2">
    <path d="M 80.76125 339.589375 
L 639.383779 339.589375 
L 639.383779 15.789375 
L 80.76125 15.789375 
z
" style="fill: #ffffff"/>
   </g>
   <g id="matplotlib.axis_1">
    <g id="xtick_1">
     <g id="line2d_1">
      <defs>
       <path id="maf6bce56b9" d="M 0 0 
L 0 3.5 
" style="stroke: #000000; stroke-width: 1.5"/>
      </defs>
      <g>
       <use xlink:href="#maf6bce56b9" x="80.76125" y="339.589375" style="stroke: #000000; stroke-width: 1.5"/>
      </g>
     </g>
     <g id="text_1">
      <!-- 0 -->
      <g transform="translate(74.088125 363.768125) scale(0.24 -0.24)">
       <defs>
        <path id="ArialMT-30" d="M 266 2259 
Q 266 3072 433 3567 
Q 600 4063 929 4331 
Q 1259 4600 1759 4600 
Q 2128 4600 2406 4451 
Q 2684 4303 2865 4023 
Q 3047 3744 3150 3342 
Q 3253 2941 3253 2259 
Q 3253 1453 3087 958 
Q 2922 463 2592 192 
Q 2263 -78 1759 -78 
Q 1097 -78 719 397 
Q 266 969 266 2259 
z
M 844 2259 
Q 844 1131 1108 757 
Q 1372 384 1759 384 
Q 2147 384 2411 759 
Q 2675 1134 2675 2259 
Q 2675 3391 2411 3762 
Q 2147 4134 1753 4134 
Q 1366 4134 1134 3806 
Q 844 3388 844 2259 
z
" transform="scale(0.015625)"/>
       </defs>
       <use xlink:href="#ArialMT-30"/>
      </g>
     </g>
    </g>
    <g id="xtick_2">
     <g id="line2d_2">
      <g>
       <use xlink:href="#maf6bce56b9" x="134.217951" y="339.589375" style="stroke: #000000; stroke-width: 1.5"/>
      </g>
     </g>
     <g id="text_2">
      <!-- 1 -->
      <g transform="translate(127.544826 363.768125) scale(0.24 -0.24)">
       <defs>
        <path id="ArialMT-31" d="M 2384 0 
L 1822 0 
L 1822 3584 
Q 1619 3391 1289 3197 
Q 959 3003 697 2906 
L 697 3450 
Q 1169 3672 1522 3987 
Q 1875 4303 2022 4600 
L 2384 4600 
L 2384 0 
z
" transform="scale(0.015625)"/>
       </defs>
       <use xlink:href="#ArialMT-31"/>
      </g>
     </g>
    </g>
    <g id="xtick_3">
     <g id="line2d_3">
      <g>
       <use xlink:href="#maf6bce56b9" x="187.674653" y="339.589375" style="stroke: #000000; stroke-width: 1.5"/>
      </g>
     </g>
     <g id="text_3">
      <!-- 2 -->
      <g transform="translate(181.001528 363.768125) scale(0.24 -0.24)">
       <defs>
        <path id="ArialMT-32" d="M 3222 541 
L 3222 0 
L 194 0 
Q 188 203 259 391 
Q 375 700 629 1000 
Q 884 1300 1366 1694 
Q 2113 2306 2375 2664 
Q 2638 3022 2638 3341 
Q 2638 3675 2398 3904 
Q 2159 4134 1775 4134 
Q 1369 4134 1125 3890 
Q 881 3647 878 3216 
L 300 3275 
Q 359 3922 746 4261 
Q 1134 4600 1788 4600 
Q 2447 4600 2831 4234 
Q 3216 3869 3216 3328 
Q 3216 3053 3103 2787 
Q 2991 2522 2730 2228 
Q 2469 1934 1863 1422 
Q 1356 997 1212 845 
Q 1069 694 975 541 
L 3222 541 
z
" transform="scale(0.015625)"/>
       </defs>
       <use xlink:href="#ArialMT-32"/>
      </g>
     </g>
    </g>
    <g id="xtick_4">
     <g id="line2d_4">
      <g>
       <use xlink:href="#maf6bce56b9" x="241.131354" y="339.589375" style="stroke: #000000; stroke-width: 1.5"/>
      </g>
     </g>
     <g id="text_4">
      <!-- 3 -->
      <g transform="translate(234.458229 363.768125) scale(0.24 -0.24)">
       <defs>
        <path id="ArialMT-33" d="M 269 1209 
L 831 1284 
Q 928 806 1161 595 
Q 1394 384 1728 384 
Q 2125 384 2398 659 
Q 2672 934 2672 1341 
Q 2672 1728 2419 1979 
Q 2166 2231 1775 2231 
Q 1616 2231 1378 2169 
L 1441 2663 
Q 1497 2656 1531 2656 
Q 1891 2656 2178 2843 
Q 2466 3031 2466 3422 
Q 2466 3731 2256 3934 
Q 2047 4138 1716 4138 
Q 1388 4138 1169 3931 
Q 950 3725 888 3313 
L 325 3413 
Q 428 3978 793 4289 
Q 1159 4600 1703 4600 
Q 2078 4600 2393 4439 
Q 2709 4278 2876 4000 
Q 3044 3722 3044 3409 
Q 3044 3113 2884 2869 
Q 2725 2625 2413 2481 
Q 2819 2388 3044 2092 
Q 3269 1797 3269 1353 
Q 3269 753 2831 336 
Q 2394 -81 1725 -81 
Q 1122 -81 723 278 
Q 325 638 269 1209 
z
" transform="scale(0.015625)"/>
       </defs>
       <use xlink:href="#ArialMT-33"/>
      </g>
     </g>
    </g>
    <g id="xtick_5">
     <g id="line2d_5">
      <g>
       <use xlink:href="#maf6bce56b9" x="294.588055" y="339.589375" style="stroke: #000000; stroke-width: 1.5"/>
      </g>
     </g>
     <g id="text_5">
      <!-- 4 -->
      <g transform="translate(287.91493 363.768125) scale(0.24 -0.24)">
       <defs>
        <path id="ArialMT-34" d="M 2069 0 
L 2069 1097 
L 81 1097 
L 81 1613 
L 2172 4581 
L 2631 4581 
L 2631 1613 
L 3250 1613 
L 3250 1097 
L 2631 1097 
L 2631 0 
L 2069 0 
z
M 2069 1613 
L 2069 3678 
L 634 1613 
L 2069 1613 
z
" transform="scale(0.015625)"/>
       </defs>
       <use xlink:href="#ArialMT-34"/>
      </g>
     </g>
    </g>
    <g id="xtick_6">
     <g id="line2d_6">
      <g>
       <use xlink:href="#maf6bce56b9" x="348.044757" y="339.589375" style="stroke: #000000; stroke-width: 1.5"/>
      </g>
     </g>
     <g id="text_6">
      <!-- 5 -->
      <g transform="translate(341.371632 363.768125) scale(0.24 -0.24)">
       <defs>
        <path id="ArialMT-35" d="M 266 1200 
L 856 1250 
Q 922 819 1161 601 
Q 1400 384 1738 384 
Q 2144 384 2425 690 
Q 2706 997 2706 1503 
Q 2706 1984 2436 2262 
Q 2166 2541 1728 2541 
Q 1456 2541 1237 2417 
Q 1019 2294 894 2097 
L 366 2166 
L 809 4519 
L 3088 4519 
L 3088 3981 
L 1259 3981 
L 1013 2750 
Q 1425 3038 1878 3038 
Q 2478 3038 2890 2622 
Q 3303 2206 3303 1553 
Q 3303 931 2941 478 
Q 2500 -78 1738 -78 
Q 1113 -78 717 272 
Q 322 622 266 1200 
z
" transform="scale(0.015625)"/>
       </defs>
       <use xlink:href="#ArialMT-35"/>
      </g>
     </g>
    </g>
    <g id="xtick_7">
     <g id="line2d_7">
      <g>
       <use xlink:href="#maf6bce56b9" x="401.501458" y="339.589375" style="stroke: #000000; stroke-width: 1.5"/>
      </g>
     </g>
     <g id="text_7">
      <!-- 6 -->
      <g transform="translate(394.828333 363.768125) scale(0.24 -0.24)">
       <defs>
        <path id="ArialMT-36" d="M 3184 3459 
L 2625 3416 
Q 2550 3747 2413 3897 
Q 2184 4138 1850 4138 
Q 1581 4138 1378 3988 
Q 1113 3794 959 3422 
Q 806 3050 800 2363 
Q 1003 2672 1297 2822 
Q 1591 2972 1913 2972 
Q 2475 2972 2870 2558 
Q 3266 2144 3266 1488 
Q 3266 1056 3080 686 
Q 2894 316 2569 119 
Q 2244 -78 1831 -78 
Q 1128 -78 684 439 
Q 241 956 241 2144 
Q 241 3472 731 4075 
Q 1159 4600 1884 4600 
Q 2425 4600 2770 4297 
Q 3116 3994 3184 3459 
z
M 888 1484 
Q 888 1194 1011 928 
Q 1134 663 1356 523 
Q 1578 384 1822 384 
Q 2178 384 2434 671 
Q 2691 959 2691 1453 
Q 2691 1928 2437 2201 
Q 2184 2475 1800 2475 
Q 1419 2475 1153 2201 
Q 888 1928 888 1484 
z
" transform="scale(0.015625)"/>
       </defs>
       <use xlink:href="#ArialMT-36"/>
      </g>
     </g>
    </g>
    <g id="xtick_8">
     <g id="line2d_8">
      <g>
       <use xlink:href="#maf6bce56b9" x="454.958159" y="339.589375" style="stroke: #000000; stroke-width: 1.5"/>
      </g>
     </g>
     <g id="text_8">
      <!-- 7 -->
      <g transform="translate(448.285034 363.768125) scale(0.24 -0.24)">
       <defs>
        <path id="ArialMT-37" d="M 303 3981 
L 303 4522 
L 3269 4522 
L 3269 4084 
Q 2831 3619 2401 2847 
Q 1972 2075 1738 1259 
Q 1569 684 1522 0 
L 944 0 
Q 953 541 1156 1306 
Q 1359 2072 1739 2783 
Q 2119 3494 2547 3981 
L 303 3981 
z
" transform="scale(0.015625)"/>
       </defs>
       <use xlink:href="#ArialMT-37"/>
      </g>
     </g>
    </g>
    <g id="xtick_9">
     <g id="line2d_9">
      <g>
       <use xlink:href="#maf6bce56b9" x="508.414861" y="339.589375" style="stroke: #000000; stroke-width: 1.5"/>
      </g>
     </g>
     <g id="text_9">
      <!-- 8 -->
      <g transform="translate(501.741736 363.768125) scale(0.24 -0.24)">
       <defs>
        <path id="ArialMT-38" d="M 1131 2484 
Q 781 2613 612 2850 
Q 444 3088 444 3419 
Q 444 3919 803 4259 
Q 1163 4600 1759 4600 
Q 2359 4600 2725 4251 
Q 3091 3903 3091 3403 
Q 3091 3084 2923 2848 
Q 2756 2613 2416 2484 
Q 2838 2347 3058 2040 
Q 3278 1734 3278 1309 
Q 3278 722 2862 322 
Q 2447 -78 1769 -78 
Q 1091 -78 675 323 
Q 259 725 259 1325 
Q 259 1772 486 2073 
Q 713 2375 1131 2484 
z
M 1019 3438 
Q 1019 3113 1228 2906 
Q 1438 2700 1772 2700 
Q 2097 2700 2305 2904 
Q 2513 3109 2513 3406 
Q 2513 3716 2298 3927 
Q 2084 4138 1766 4138 
Q 1444 4138 1231 3931 
Q 1019 3725 1019 3438 
z
M 838 1322 
Q 838 1081 952 856 
Q 1066 631 1291 507 
Q 1516 384 1775 384 
Q 2178 384 2440 643 
Q 2703 903 2703 1303 
Q 2703 1709 2433 1975 
Q 2163 2241 1756 2241 
Q 1359 2241 1098 1978 
Q 838 1716 838 1322 
z
" transform="scale(0.015625)"/>
       </defs>
       <use xlink:href="#ArialMT-38"/>
      </g>
     </g>
    </g>
    <g id="xtick_10">
     <g id="line2d_10">
      <g>
       <use xlink:href="#maf6bce56b9" x="561.871562" y="339.589375" style="stroke: #000000; stroke-width: 1.5"/>
      </g>
     </g>
     <g id="text_10">
      <!-- 9 -->
      <g transform="translate(555.198437 363.768125) scale(0.24 -0.24)">
       <defs>
        <path id="ArialMT-39" d="M 350 1059 
L 891 1109 
Q 959 728 1153 556 
Q 1347 384 1650 384 
Q 1909 384 2104 503 
Q 2300 622 2425 820 
Q 2550 1019 2634 1356 
Q 2719 1694 2719 2044 
Q 2719 2081 2716 2156 
Q 2547 1888 2255 1720 
Q 1963 1553 1622 1553 
Q 1053 1553 659 1965 
Q 266 2378 266 3053 
Q 266 3750 677 4175 
Q 1088 4600 1706 4600 
Q 2153 4600 2523 4359 
Q 2894 4119 3086 3673 
Q 3278 3228 3278 2384 
Q 3278 1506 3087 986 
Q 2897 466 2520 194 
Q 2144 -78 1638 -78 
Q 1100 -78 759 220 
Q 419 519 350 1059 
z
M 2653 3081 
Q 2653 3566 2395 3850 
Q 2138 4134 1775 4134 
Q 1400 4134 1122 3828 
Q 844 3522 844 3034 
Q 844 2597 1108 2323 
Q 1372 2050 1759 2050 
Q 2150 2050 2401 2323 
Q 2653 2597 2653 3081 
z
" transform="scale(0.015625)"/>
       </defs>
       <use xlink:href="#ArialMT-39"/>
      </g>
     </g>
    </g>
    <g id="xtick_11">
     <g id="line2d_11">
      <g>
       <use xlink:href="#maf6bce56b9" x="615.328263" y="339.589375" style="stroke: #000000; stroke-width: 1.5"/>
      </g>
     </g>
     <g id="text_11">
      <!-- 10 -->
      <g transform="translate(601.982013 363.768125) scale(0.24 -0.24)">
       <use xlink:href="#ArialMT-31"/>
       <use xlink:href="#ArialMT-30" transform="translate(55.615234 0)"/>
      </g>
     </g>
    </g>
    <g id="text_12">
     <!-- Max Depth -->
     <g transform="translate(302.05064 389.716875) scale(0.24 -0.24)">
      <defs>
       <path id="ArialMT-4d" d="M 475 0 
L 475 4581 
L 1388 4581 
L 2472 1338 
Q 2622 884 2691 659 
Q 2769 909 2934 1394 
L 4031 4581 
L 4847 4581 
L 4847 0 
L 4263 0 
L 4263 3834 
L 2931 0 
L 2384 0 
L 1059 3900 
L 1059 0 
L 475 0 
z
" transform="scale(0.015625)"/>
       <path id="ArialMT-61" d="M 2588 409 
Q 2275 144 1986 34 
Q 1697 -75 1366 -75 
Q 819 -75 525 192 
Q 231 459 231 875 
Q 231 1119 342 1320 
Q 453 1522 633 1644 
Q 813 1766 1038 1828 
Q 1203 1872 1538 1913 
Q 2219 1994 2541 2106 
Q 2544 2222 2544 2253 
Q 2544 2597 2384 2738 
Q 2169 2928 1744 2928 
Q 1347 2928 1158 2789 
Q 969 2650 878 2297 
L 328 2372 
Q 403 2725 575 2942 
Q 747 3159 1072 3276 
Q 1397 3394 1825 3394 
Q 2250 3394 2515 3294 
Q 2781 3194 2906 3042 
Q 3031 2891 3081 2659 
Q 3109 2516 3109 2141 
L 3109 1391 
Q 3109 606 3145 398 
Q 3181 191 3288 0 
L 2700 0 
Q 2613 175 2588 409 
z
M 2541 1666 
Q 2234 1541 1622 1453 
Q 1275 1403 1131 1340 
Q 988 1278 909 1158 
Q 831 1038 831 891 
Q 831 666 1001 516 
Q 1172 366 1500 366 
Q 1825 366 2078 508 
Q 2331 650 2450 897 
Q 2541 1088 2541 1459 
L 2541 1666 
z
" transform="scale(0.015625)"/>
       <path id="ArialMT-78" d="M 47 0 
L 1259 1725 
L 138 3319 
L 841 3319 
L 1350 2541 
Q 1494 2319 1581 2169 
Q 1719 2375 1834 2534 
L 2394 3319 
L 3066 3319 
L 1919 1756 
L 3153 0 
L 2463 0 
L 1781 1031 
L 1600 1309 
L 728 0 
L 47 0 
z
" transform="scale(0.015625)"/>
       <path id="ArialMT-20" transform="scale(0.015625)"/>
       <path id="ArialMT-44" d="M 494 0 
L 494 4581 
L 2072 4581 
Q 2606 4581 2888 4516 
Q 3281 4425 3559 4188 
Q 3922 3881 4101 3404 
Q 4281 2928 4281 2316 
Q 4281 1794 4159 1391 
Q 4038 988 3847 723 
Q 3656 459 3429 307 
Q 3203 156 2883 78 
Q 2563 0 2147 0 
L 494 0 
z
M 1100 541 
L 2078 541 
Q 2531 541 2789 625 
Q 3047 709 3200 863 
Q 3416 1078 3536 1442 
Q 3656 1806 3656 2325 
Q 3656 3044 3420 3430 
Q 3184 3816 2847 3947 
Q 2603 4041 2063 4041 
L 1100 4041 
L 1100 541 
z
" transform="scale(0.015625)"/>
       <path id="ArialMT-65" d="M 2694 1069 
L 3275 997 
Q 3138 488 2766 206 
Q 2394 -75 1816 -75 
Q 1088 -75 661 373 
Q 234 822 234 1631 
Q 234 2469 665 2931 
Q 1097 3394 1784 3394 
Q 2450 3394 2872 2941 
Q 3294 2488 3294 1666 
Q 3294 1616 3291 1516 
L 816 1516 
Q 847 969 1125 678 
Q 1403 388 1819 388 
Q 2128 388 2347 550 
Q 2566 713 2694 1069 
z
M 847 1978 
L 2700 1978 
Q 2663 2397 2488 2606 
Q 2219 2931 1791 2931 
Q 1403 2931 1139 2672 
Q 875 2413 847 1978 
z
" transform="scale(0.015625)"/>
       <path id="ArialMT-70" d="M 422 -1272 
L 422 3319 
L 934 3319 
L 934 2888 
Q 1116 3141 1344 3267 
Q 1572 3394 1897 3394 
Q 2322 3394 2647 3175 
Q 2972 2956 3137 2557 
Q 3303 2159 3303 1684 
Q 3303 1175 3120 767 
Q 2938 359 2589 142 
Q 2241 -75 1856 -75 
Q 1575 -75 1351 44 
Q 1128 163 984 344 
L 984 -1272 
L 422 -1272 
z
M 931 1641 
Q 931 1000 1190 694 
Q 1450 388 1819 388 
Q 2194 388 2461 705 
Q 2728 1022 2728 1688 
Q 2728 2322 2467 2637 
Q 2206 2953 1844 2953 
Q 1484 2953 1207 2617 
Q 931 2281 931 1641 
z
" transform="scale(0.015625)"/>
       <path id="ArialMT-74" d="M 1650 503 
L 1731 6 
Q 1494 -44 1306 -44 
Q 1000 -44 831 53 
Q 663 150 594 308 
Q 525 466 525 972 
L 525 2881 
L 113 2881 
L 113 3319 
L 525 3319 
L 525 4141 
L 1084 4478 
L 1084 3319 
L 1650 3319 
L 1650 2881 
L 1084 2881 
L 1084 941 
Q 1084 700 1114 631 
Q 1144 563 1211 522 
Q 1278 481 1403 481 
Q 1497 481 1650 503 
z
" transform="scale(0.015625)"/>
       <path id="ArialMT-68" d="M 422 0 
L 422 4581 
L 984 4581 
L 984 2938 
Q 1378 3394 1978 3394 
Q 2347 3394 2619 3248 
Q 2891 3103 3008 2847 
Q 3125 2591 3125 2103 
L 3125 0 
L 2563 0 
L 2563 2103 
Q 2563 2525 2380 2717 
Q 2197 2909 1863 2909 
Q 1613 2909 1392 2779 
Q 1172 2650 1078 2428 
Q 984 2206 984 1816 
L 984 0 
L 422 0 
z
" transform="scale(0.015625)"/>
      </defs>
      <use xlink:href="#ArialMT-4d"/>
      <use xlink:href="#ArialMT-61" transform="translate(83.300781 0)"/>
      <use xlink:href="#ArialMT-78" transform="translate(138.916016 0)"/>
      <use xlink:href="#ArialMT-20" transform="translate(188.916016 0)"/>
      <use xlink:href="#ArialMT-44" transform="translate(216.699219 0)"/>
      <use xlink:href="#ArialMT-65" transform="translate(288.916016 0)"/>
      <use xlink:href="#ArialMT-70" transform="translate(344.53125 0)"/>
      <use xlink:href="#ArialMT-74" transform="translate(400.146484 0)"/>
      <use xlink:href="#ArialMT-68" transform="translate(427.929688 0)"/>
     </g>
    </g>
   </g>
   <g id="matplotlib.axis_2">
    <g id="ytick_1">
     <g id="line2d_12">
      <defs>
       <path id="m7bee876df1" d="M 0 0 
L -3.5 0 
" style="stroke: #000000; stroke-width: 1.5"/>
      </defs>
      <g>
       <use xlink:href="#m7bee876df1" x="80.76125" y="339.589375" style="stroke: #000000; stroke-width: 1.5"/>
      </g>
     </g>
     <g id="text_13">
      <!-- 0 -->
      <g transform="translate(60.415 348.17875) scale(0.24 -0.24)">
       <use xlink:href="#ArialMT-30"/>
      </g>
     </g>
    </g>
    <g id="ytick_2">
     <g id="line2d_13">
      <g>
       <use xlink:href="#m7bee876df1" x="80.76125" y="274.829375" style="stroke: #000000; stroke-width: 1.5"/>
      </g>
     </g>
     <g id="text_14">
      <!-- 90 -->
      <g transform="translate(47.06875 283.41875) scale(0.24 -0.24)">
       <use xlink:href="#ArialMT-39"/>
       <use xlink:href="#ArialMT-30" transform="translate(55.615234 0)"/>
      </g>
     </g>
    </g>
    <g id="ytick_3">
     <g id="line2d_14">
      <g>
       <use xlink:href="#m7bee876df1" x="80.76125" y="210.069375" style="stroke: #000000; stroke-width: 1.5"/>
      </g>
     </g>
     <g id="text_15">
      <!-- 180 -->
      <g transform="translate(33.7225 218.65875) scale(0.24 -0.24)">
       <use xlink:href="#ArialMT-31"/>
       <use xlink:href="#ArialMT-38" transform="translate(55.615234 0)"/>
       <use xlink:href="#ArialMT-30" transform="translate(111.230469 0)"/>
      </g>
     </g>
    </g>
    <g id="ytick_4">
     <g id="line2d_15">
      <g>
       <use xlink:href="#m7bee876df1" x="80.76125" y="145.309375" style="stroke: #000000; stroke-width: 1.5"/>
      </g>
     </g>
     <g id="text_16">
      <!-- 270 -->
      <g transform="translate(33.7225 153.89875) scale(0.24 -0.24)">
       <use xlink:href="#ArialMT-32"/>
       <use xlink:href="#ArialMT-37" transform="translate(55.615234 0)"/>
       <use xlink:href="#ArialMT-30" transform="translate(111.230469 0)"/>
      </g>
     </g>
    </g>
    <g id="ytick_5">
     <g id="line2d_16">
      <g>
       <use xlink:href="#m7bee876df1" x="80.76125" y="80.549375" style="stroke: #000000; stroke-width: 1.5"/>
      </g>
     </g>
     <g id="text_17">
      <!-- 360 -->
      <g transform="translate(33.7225 89.13875) scale(0.24 -0.24)">
       <use xlink:href="#ArialMT-33"/>
       <use xlink:href="#ArialMT-36" transform="translate(55.615234 0)"/>
       <use xlink:href="#ArialMT-30" transform="translate(111.230469 0)"/>
      </g>
     </g>
    </g>
    <g id="ytick_6">
     <g id="line2d_17">
      <g>
       <use xlink:href="#m7bee876df1" x="80.76125" y="15.789375" style="stroke: #000000; stroke-width: 1.5"/>
      </g>
     </g>
     <g id="text_18">
      <!-- 450 -->
      <g transform="translate(33.7225 24.37875) scale(0.24 -0.24)">
       <use xlink:href="#ArialMT-34"/>
       <use xlink:href="#ArialMT-35" transform="translate(55.615234 0)"/>
       <use xlink:href="#ArialMT-30" transform="translate(111.230469 0)"/>
      </g>
     </g>
    </g>
    <g id="text_19">
     <!-- Best Score (RMSE) -->
     <g transform="translate(24.67125 282.37625) rotate(-90) scale(0.24 -0.24)">
      <defs>
       <path id="ArialMT-42" d="M 469 0 
L 469 4581 
L 2188 4581 
Q 2713 4581 3030 4442 
Q 3347 4303 3526 4014 
Q 3706 3725 3706 3409 
Q 3706 3116 3547 2856 
Q 3388 2597 3066 2438 
Q 3481 2316 3704 2022 
Q 3928 1728 3928 1328 
Q 3928 1006 3792 729 
Q 3656 453 3456 303 
Q 3256 153 2954 76 
Q 2653 0 2216 0 
L 469 0 
z
M 1075 2656 
L 2066 2656 
Q 2469 2656 2644 2709 
Q 2875 2778 2992 2937 
Q 3109 3097 3109 3338 
Q 3109 3566 3000 3739 
Q 2891 3913 2687 3977 
Q 2484 4041 1991 4041 
L 1075 4041 
L 1075 2656 
z
M 1075 541 
L 2216 541 
Q 2509 541 2628 563 
Q 2838 600 2978 687 
Q 3119 775 3209 942 
Q 3300 1109 3300 1328 
Q 3300 1584 3169 1773 
Q 3038 1963 2805 2039 
Q 2572 2116 2134 2116 
L 1075 2116 
L 1075 541 
z
" transform="scale(0.015625)"/>
       <path id="ArialMT-73" d="M 197 991 
L 753 1078 
Q 800 744 1014 566 
Q 1228 388 1613 388 
Q 2000 388 2187 545 
Q 2375 703 2375 916 
Q 2375 1106 2209 1216 
Q 2094 1291 1634 1406 
Q 1016 1563 777 1677 
Q 538 1791 414 1992 
Q 291 2194 291 2438 
Q 291 2659 392 2848 
Q 494 3038 669 3163 
Q 800 3259 1026 3326 
Q 1253 3394 1513 3394 
Q 1903 3394 2198 3281 
Q 2494 3169 2634 2976 
Q 2775 2784 2828 2463 
L 2278 2388 
Q 2241 2644 2061 2787 
Q 1881 2931 1553 2931 
Q 1166 2931 1000 2803 
Q 834 2675 834 2503 
Q 834 2394 903 2306 
Q 972 2216 1119 2156 
Q 1203 2125 1616 2013 
Q 2213 1853 2448 1751 
Q 2684 1650 2818 1456 
Q 2953 1263 2953 975 
Q 2953 694 2789 445 
Q 2625 197 2315 61 
Q 2006 -75 1616 -75 
Q 969 -75 630 194 
Q 291 463 197 991 
z
" transform="scale(0.015625)"/>
       <path id="ArialMT-53" d="M 288 1472 
L 859 1522 
Q 900 1178 1048 958 
Q 1197 738 1509 602 
Q 1822 466 2213 466 
Q 2559 466 2825 569 
Q 3091 672 3220 851 
Q 3350 1031 3350 1244 
Q 3350 1459 3225 1620 
Q 3100 1781 2813 1891 
Q 2628 1963 1997 2114 
Q 1366 2266 1113 2400 
Q 784 2572 623 2826 
Q 463 3081 463 3397 
Q 463 3744 659 4045 
Q 856 4347 1234 4503 
Q 1613 4659 2075 4659 
Q 2584 4659 2973 4495 
Q 3363 4331 3572 4012 
Q 3781 3694 3797 3291 
L 3216 3247 
Q 3169 3681 2898 3903 
Q 2628 4125 2100 4125 
Q 1550 4125 1298 3923 
Q 1047 3722 1047 3438 
Q 1047 3191 1225 3031 
Q 1400 2872 2139 2705 
Q 2878 2538 3153 2413 
Q 3553 2228 3743 1945 
Q 3934 1663 3934 1294 
Q 3934 928 3725 604 
Q 3516 281 3123 101 
Q 2731 -78 2241 -78 
Q 1619 -78 1198 103 
Q 778 284 539 648 
Q 300 1013 288 1472 
z
" transform="scale(0.015625)"/>
       <path id="ArialMT-63" d="M 2588 1216 
L 3141 1144 
Q 3050 572 2676 248 
Q 2303 -75 1759 -75 
Q 1078 -75 664 370 
Q 250 816 250 1647 
Q 250 2184 428 2587 
Q 606 2991 970 3192 
Q 1334 3394 1763 3394 
Q 2303 3394 2647 3120 
Q 2991 2847 3088 2344 
L 2541 2259 
Q 2463 2594 2264 2762 
Q 2066 2931 1784 2931 
Q 1359 2931 1093 2626 
Q 828 2322 828 1663 
Q 828 994 1084 691 
Q 1341 388 1753 388 
Q 2084 388 2306 591 
Q 2528 794 2588 1216 
z
" transform="scale(0.015625)"/>
       <path id="ArialMT-6f" d="M 213 1659 
Q 213 2581 725 3025 
Q 1153 3394 1769 3394 
Q 2453 3394 2887 2945 
Q 3322 2497 3322 1706 
Q 3322 1066 3130 698 
Q 2938 331 2570 128 
Q 2203 -75 1769 -75 
Q 1072 -75 642 372 
Q 213 819 213 1659 
z
M 791 1659 
Q 791 1022 1069 705 
Q 1347 388 1769 388 
Q 2188 388 2466 706 
Q 2744 1025 2744 1678 
Q 2744 2294 2464 2611 
Q 2184 2928 1769 2928 
Q 1347 2928 1069 2612 
Q 791 2297 791 1659 
z
" transform="scale(0.015625)"/>
       <path id="ArialMT-72" d="M 416 0 
L 416 3319 
L 922 3319 
L 922 2816 
Q 1116 3169 1280 3281 
Q 1444 3394 1641 3394 
Q 1925 3394 2219 3213 
L 2025 2691 
Q 1819 2813 1613 2813 
Q 1428 2813 1281 2702 
Q 1134 2591 1072 2394 
Q 978 2094 978 1738 
L 978 0 
L 416 0 
z
" transform="scale(0.015625)"/>
       <path id="ArialMT-28" d="M 1497 -1347 
Q 1031 -759 709 28 
Q 388 816 388 1659 
Q 388 2403 628 3084 
Q 909 3875 1497 4659 
L 1900 4659 
Q 1522 4009 1400 3731 
Q 1209 3300 1100 2831 
Q 966 2247 966 1656 
Q 966 153 1900 -1347 
L 1497 -1347 
z
" transform="scale(0.015625)"/>
       <path id="ArialMT-52" d="M 503 0 
L 503 4581 
L 2534 4581 
Q 3147 4581 3465 4457 
Q 3784 4334 3975 4021 
Q 4166 3709 4166 3331 
Q 4166 2844 3850 2509 
Q 3534 2175 2875 2084 
Q 3116 1969 3241 1856 
Q 3506 1613 3744 1247 
L 4541 0 
L 3778 0 
L 3172 953 
Q 2906 1366 2734 1584 
Q 2563 1803 2427 1890 
Q 2291 1978 2150 2013 
Q 2047 2034 1813 2034 
L 1109 2034 
L 1109 0 
L 503 0 
z
M 1109 2559 
L 2413 2559 
Q 2828 2559 3062 2645 
Q 3297 2731 3419 2920 
Q 3541 3109 3541 3331 
Q 3541 3656 3305 3865 
Q 3069 4075 2559 4075 
L 1109 4075 
L 1109 2559 
z
" transform="scale(0.015625)"/>
       <path id="ArialMT-45" d="M 506 0 
L 506 4581 
L 3819 4581 
L 3819 4041 
L 1113 4041 
L 1113 2638 
L 3647 2638 
L 3647 2100 
L 1113 2100 
L 1113 541 
L 3925 541 
L 3925 0 
L 506 0 
z
" transform="scale(0.015625)"/>
       <path id="ArialMT-29" d="M 791 -1347 
L 388 -1347 
Q 1322 153 1322 1656 
Q 1322 2244 1188 2822 
Q 1081 3291 891 3722 
Q 769 4003 388 4659 
L 791 4659 
Q 1378 3875 1659 3084 
Q 1900 2403 1900 1659 
Q 1900 816 1576 28 
Q 1253 -759 791 -1347 
z
" transform="scale(0.015625)"/>
      </defs>
      <use xlink:href="#ArialMT-42"/>
      <use xlink:href="#ArialMT-65" transform="translate(66.699219 0)"/>
      <use xlink:href="#ArialMT-73" transform="translate(122.314453 0)"/>
      <use xlink:href="#ArialMT-74" transform="translate(172.314453 0)"/>
      <use xlink:href="#ArialMT-20" transform="translate(200.097656 0)"/>
      <use xlink:href="#ArialMT-53" transform="translate(227.880859 0)"/>
      <use xlink:href="#ArialMT-63" transform="translate(294.580078 0)"/>
      <use xlink:href="#ArialMT-6f" transform="translate(344.580078 0)"/>
      <use xlink:href="#ArialMT-72" transform="translate(400.195312 0)"/>
      <use xlink:href="#ArialMT-65" transform="translate(433.496094 0)"/>
      <use xlink:href="#ArialMT-20" transform="translate(489.111328 0)"/>
      <use xlink:href="#ArialMT-28" transform="translate(516.894531 0)"/>
      <use xlink:href="#ArialMT-52" transform="translate(550.195312 0)"/>
      <use xlink:href="#ArialMT-4d" transform="translate(622.412109 0)"/>
      <use xlink:href="#ArialMT-53" transform="translate(705.712891 0)"/>
      <use xlink:href="#ArialMT-45" transform="translate(772.412109 0)"/>
      <use xlink:href="#ArialMT-29" transform="translate(839.111328 0)"/>
     </g>
    </g>
   </g>
   <g id="line2d_18">
    <path d="M 134.217951 58.912768 
L 187.674653 113.75537 
L 241.131354 170.092279 
L 294.588055 221.057844 
L 348.044757 249.133956 
L 401.501458 271.151349 
L 454.958159 288.500009 
L 508.414861 301.548176 
L 561.871562 310.479679 
L 615.328263 316.105017 
" clip-path="url(#p0c0971da6c)" style="fill: none; stroke: #0000ff; stroke-width: 1.5; stroke-linecap: square"/>
    <defs>
     <path id="mcbb7b00f8e" d="M 0 3 
C 0.795609 3 1.55874 2.683901 2.12132 2.12132 
C 2.683901 1.55874 3 0.795609 3 0 
C 3 -0.795609 2.683901 -1.55874 2.12132 -2.12132 
C 1.55874 -2.683901 0.795609 -3 0 -3 
C -0.795609 -3 -1.55874 -2.683901 -2.12132 -2.12132 
C -2.683901 -1.55874 -3 -0.795609 -3 0 
C -3 0.795609 -2.683901 1.55874 -2.12132 2.12132 
C -1.55874 2.683901 -0.795609 3 0 3 
z
" style="stroke: #0000ff"/>
    </defs>
    <g clip-path="url(#p0c0971da6c)">
     <use xlink:href="#mcbb7b00f8e" x="134.217951" y="58.912768" style="fill: #0000ff; stroke: #0000ff"/>
     <use xlink:href="#mcbb7b00f8e" x="187.674653" y="113.75537" style="fill: #0000ff; stroke: #0000ff"/>
     <use xlink:href="#mcbb7b00f8e" x="241.131354" y="170.092279" style="fill: #0000ff; stroke: #0000ff"/>
     <use xlink:href="#mcbb7b00f8e" x="294.588055" y="221.057844" style="fill: #0000ff; stroke: #0000ff"/>
     <use xlink:href="#mcbb7b00f8e" x="348.044757" y="249.133956" style="fill: #0000ff; stroke: #0000ff"/>
     <use xlink:href="#mcbb7b00f8e" x="401.501458" y="271.151349" style="fill: #0000ff; stroke: #0000ff"/>
     <use xlink:href="#mcbb7b00f8e" x="454.958159" y="288.500009" style="fill: #0000ff; stroke: #0000ff"/>
     <use xlink:href="#mcbb7b00f8e" x="508.414861" y="301.548176" style="fill: #0000ff; stroke: #0000ff"/>
     <use xlink:href="#mcbb7b00f8e" x="561.871562" y="310.479679" style="fill: #0000ff; stroke: #0000ff"/>
     <use xlink:href="#mcbb7b00f8e" x="615.328263" y="316.105017" style="fill: #0000ff; stroke: #0000ff"/>
    </g>
   </g>
   <g id="patch_3">
    <path d="M 80.76125 339.589375 
L 80.76125 15.789375 
" style="fill: none; stroke: #000000; stroke-width: 1.5; stroke-linejoin: miter; stroke-linecap: square"/>
   </g>
   <g id="patch_4">
    <path d="M 639.383779 339.589375 
L 639.383779 15.789375 
" style="fill: none; stroke: #000000; stroke-width: 1.5; stroke-linejoin: miter; stroke-linecap: square"/>
   </g>
   <g id="patch_5">
    <path d="M 80.76125 339.589375 
L 639.383779 339.589375 
" style="fill: none; stroke: #000000; stroke-width: 1.5; stroke-linejoin: miter; stroke-linecap: square"/>
   </g>
   <g id="patch_6">
    <path d="M 80.76125 15.789375 
L 639.383779 15.789375 
" style="fill: none; stroke: #000000; stroke-width: 1.5; stroke-linejoin: miter; stroke-linecap: square"/>
   </g>
   <g id="text_20">
    <g id="patch_7">
     <path d="M 91.933701 54.501875 
L 121.262451 54.501875 
L 121.262451 31.979375 
L 91.933701 31.979375 
z
" style="fill: #ffffff"/>
    </g>
    <!-- (d) -->
    <g transform="translate(91.933701 49.450625) scale(0.24 -0.24)">
     <defs>
      <path id="ArialMT-64" d="M 2575 0 
L 2575 419 
Q 2259 -75 1647 -75 
Q 1250 -75 917 144 
Q 584 363 401 755 
Q 219 1147 219 1656 
Q 219 2153 384 2558 
Q 550 2963 881 3178 
Q 1213 3394 1622 3394 
Q 1922 3394 2156 3267 
Q 2391 3141 2538 2938 
L 2538 4581 
L 3097 4581 
L 3097 0 
L 2575 0 
z
M 797 1656 
Q 797 1019 1065 703 
Q 1334 388 1700 388 
Q 2069 388 2326 689 
Q 2584 991 2584 1609 
Q 2584 2291 2321 2609 
Q 2059 2928 1675 2928 
Q 1300 2928 1048 2622 
Q 797 2316 797 1656 
z
" transform="scale(0.015625)"/>
     </defs>
     <use xlink:href="#ArialMT-28"/>
     <use xlink:href="#ArialMT-64" transform="translate(33.300781 0)"/>
     <use xlink:href="#ArialMT-29" transform="translate(88.916016 0)"/>
    </g>
   </g>
   <g id="legend_1">
    <g id="patch_8">
     <path d="M 464.680654 60.08 
L 625.383779 60.08 
Q 629.383779 60.08 629.383779 56.08 
L 629.383779 29.789375 
Q 629.383779 25.789375 625.383779 25.789375 
L 464.680654 25.789375 
Q 460.680654 25.789375 460.680654 29.789375 
L 460.680654 56.08 
Q 460.680654 60.08 464.680654 60.08 
z
" style="fill: #ffffff; opacity: 0.8; stroke: #cccccc; stroke-linejoin: miter"/>
    </g>
    <g id="line2d_19">
     <path d="M 468.680654 41.105 
L 488.680654 41.105 
L 508.680654 41.105 
" style="fill: none; stroke: #0000ff; stroke-width: 1.5; stroke-linecap: square"/>
     <g>
      <use xlink:href="#mcbb7b00f8e" x="488.680654" y="41.105" style="fill: #0000ff; stroke: #0000ff"/>
     </g>
    </g>
    <g id="text_21">
     <!-- Max Depth -->
     <g transform="translate(524.680654 48.105) scale(0.2 -0.2)">
      <use xlink:href="#ArialMT-4d"/>
      <use xlink:href="#ArialMT-61" transform="translate(83.300781 0)"/>
      <use xlink:href="#ArialMT-78" transform="translate(138.916016 0)"/>
      <use xlink:href="#ArialMT-20" transform="translate(188.916016 0)"/>
      <use xlink:href="#ArialMT-44" transform="translate(216.699219 0)"/>
      <use xlink:href="#ArialMT-65" transform="translate(288.916016 0)"/>
      <use xlink:href="#ArialMT-70" transform="translate(344.53125 0)"/>
      <use xlink:href="#ArialMT-74" transform="translate(400.146484 0)"/>
      <use xlink:href="#ArialMT-68" transform="translate(427.929688 0)"/>
     </g>
    </g>
   </g>
  </g>
  <g id="axes_2">
   <g id="patch_9">
    <path d="M 714.818735 339.589375 
L 1273.441265 339.589375 
L 1273.441265 15.789375 
L 714.818735 15.789375 
z
" style="fill: #ffffff"/>
   </g>
   <g id="matplotlib.axis_3">
    <g id="xtick_12">
     <g id="line2d_20">
      <g>
       <use xlink:href="#maf6bce56b9" x="731.45483" y="339.589375" style="stroke: #000000; stroke-width: 1.5"/>
      </g>
     </g>
     <g id="text_22">
      <!-- 0 -->
      <g transform="translate(724.781705 363.768125) scale(0.24 -0.24)">
       <use xlink:href="#ArialMT-30"/>
      </g>
     </g>
    </g>
    <g id="xtick_13">
     <g id="line2d_21">
      <g>
       <use xlink:href="#maf6bce56b9" x="819.01322" y="339.589375" style="stroke: #000000; stroke-width: 1.5"/>
      </g>
     </g>
     <g id="text_23">
      <!-- 50 -->
      <g transform="translate(805.66697 363.768125) scale(0.24 -0.24)">
       <use xlink:href="#ArialMT-35"/>
       <use xlink:href="#ArialMT-30" transform="translate(55.615234 0)"/>
      </g>
     </g>
    </g>
    <g id="xtick_14">
     <g id="line2d_22">
      <g>
       <use xlink:href="#maf6bce56b9" x="906.57161" y="339.589375" style="stroke: #000000; stroke-width: 1.5"/>
      </g>
     </g>
     <g id="text_24">
      <!-- 100 -->
      <g transform="translate(886.552235 363.768125) scale(0.24 -0.24)">
       <use xlink:href="#ArialMT-31"/>
       <use xlink:href="#ArialMT-30" transform="translate(55.615234 0)"/>
       <use xlink:href="#ArialMT-30" transform="translate(111.230469 0)"/>
      </g>
     </g>
    </g>
    <g id="xtick_15">
     <g id="line2d_23">
      <g>
       <use xlink:href="#maf6bce56b9" x="994.13" y="339.589375" style="stroke: #000000; stroke-width: 1.5"/>
      </g>
     </g>
     <g id="text_25">
      <!-- 150 -->
      <g transform="translate(974.110625 363.768125) scale(0.24 -0.24)">
       <use xlink:href="#ArialMT-31"/>
       <use xlink:href="#ArialMT-35" transform="translate(55.615234 0)"/>
       <use xlink:href="#ArialMT-30" transform="translate(111.230469 0)"/>
      </g>
     </g>
    </g>
    <g id="xtick_16">
     <g id="line2d_24">
      <g>
       <use xlink:href="#maf6bce56b9" x="1081.68839" y="339.589375" style="stroke: #000000; stroke-width: 1.5"/>
      </g>
     </g>
     <g id="text_26">
      <!-- 200 -->
      <g transform="translate(1061.669015 363.768125) scale(0.24 -0.24)">
       <use xlink:href="#ArialMT-32"/>
       <use xlink:href="#ArialMT-30" transform="translate(55.615234 0)"/>
       <use xlink:href="#ArialMT-30" transform="translate(111.230469 0)"/>
      </g>
     </g>
    </g>
    <g id="xtick_17">
     <g id="line2d_25">
      <g>
       <use xlink:href="#maf6bce56b9" x="1169.24678" y="339.589375" style="stroke: #000000; stroke-width: 1.5"/>
      </g>
     </g>
     <g id="text_27">
      <!-- 250 -->
      <g transform="translate(1149.227405 363.768125) scale(0.24 -0.24)">
       <use xlink:href="#ArialMT-32"/>
       <use xlink:href="#ArialMT-35" transform="translate(55.615234 0)"/>
       <use xlink:href="#ArialMT-30" transform="translate(111.230469 0)"/>
      </g>
     </g>
    </g>
    <g id="xtick_18">
     <g id="line2d_26">
      <g>
       <use xlink:href="#maf6bce56b9" x="1256.80517" y="339.589375" style="stroke: #000000; stroke-width: 1.5"/>
      </g>
     </g>
     <g id="text_28">
      <!-- 300 -->
      <g transform="translate(1236.785795 363.768125) scale(0.24 -0.24)">
       <use xlink:href="#ArialMT-33"/>
       <use xlink:href="#ArialMT-30" transform="translate(55.615234 0)"/>
       <use xlink:href="#ArialMT-30" transform="translate(111.230469 0)"/>
      </g>
     </g>
    </g>
    <g id="text_29">
     <!-- Number of Estimators -->
     <g transform="translate(878.103125 389.716875) scale(0.24 -0.24)">
      <defs>
       <path id="ArialMT-4e" d="M 488 0 
L 488 4581 
L 1109 4581 
L 3516 984 
L 3516 4581 
L 4097 4581 
L 4097 0 
L 3475 0 
L 1069 3600 
L 1069 0 
L 488 0 
z
" transform="scale(0.015625)"/>
       <path id="ArialMT-75" d="M 2597 0 
L 2597 488 
Q 2209 -75 1544 -75 
Q 1250 -75 995 37 
Q 741 150 617 320 
Q 494 491 444 738 
Q 409 903 409 1263 
L 409 3319 
L 972 3319 
L 972 1478 
Q 972 1038 1006 884 
Q 1059 663 1231 536 
Q 1403 409 1656 409 
Q 1909 409 2131 539 
Q 2353 669 2445 892 
Q 2538 1116 2538 1541 
L 2538 3319 
L 3100 3319 
L 3100 0 
L 2597 0 
z
" transform="scale(0.015625)"/>
       <path id="ArialMT-6d" d="M 422 0 
L 422 3319 
L 925 3319 
L 925 2853 
Q 1081 3097 1340 3245 
Q 1600 3394 1931 3394 
Q 2300 3394 2536 3241 
Q 2772 3088 2869 2813 
Q 3263 3394 3894 3394 
Q 4388 3394 4653 3120 
Q 4919 2847 4919 2278 
L 4919 0 
L 4359 0 
L 4359 2091 
Q 4359 2428 4304 2576 
Q 4250 2725 4106 2815 
Q 3963 2906 3769 2906 
Q 3419 2906 3187 2673 
Q 2956 2441 2956 1928 
L 2956 0 
L 2394 0 
L 2394 2156 
Q 2394 2531 2256 2718 
Q 2119 2906 1806 2906 
Q 1569 2906 1367 2781 
Q 1166 2656 1075 2415 
Q 984 2175 984 1722 
L 984 0 
L 422 0 
z
" transform="scale(0.015625)"/>
       <path id="ArialMT-62" d="M 941 0 
L 419 0 
L 419 4581 
L 981 4581 
L 981 2947 
Q 1338 3394 1891 3394 
Q 2197 3394 2470 3270 
Q 2744 3147 2920 2923 
Q 3097 2700 3197 2384 
Q 3297 2069 3297 1709 
Q 3297 856 2875 390 
Q 2453 -75 1863 -75 
Q 1275 -75 941 416 
L 941 0 
z
M 934 1684 
Q 934 1088 1097 822 
Q 1363 388 1816 388 
Q 2184 388 2453 708 
Q 2722 1028 2722 1663 
Q 2722 2313 2464 2622 
Q 2206 2931 1841 2931 
Q 1472 2931 1203 2611 
Q 934 2291 934 1684 
z
" transform="scale(0.015625)"/>
       <path id="ArialMT-66" d="M 556 0 
L 556 2881 
L 59 2881 
L 59 3319 
L 556 3319 
L 556 3672 
Q 556 4006 616 4169 
Q 697 4388 901 4523 
Q 1106 4659 1475 4659 
Q 1713 4659 2000 4603 
L 1916 4113 
Q 1741 4144 1584 4144 
Q 1328 4144 1222 4034 
Q 1116 3925 1116 3625 
L 1116 3319 
L 1763 3319 
L 1763 2881 
L 1116 2881 
L 1116 0 
L 556 0 
z
" transform="scale(0.015625)"/>
       <path id="ArialMT-69" d="M 425 3934 
L 425 4581 
L 988 4581 
L 988 3934 
L 425 3934 
z
M 425 0 
L 425 3319 
L 988 3319 
L 988 0 
L 425 0 
z
" transform="scale(0.015625)"/>
      </defs>
      <use xlink:href="#ArialMT-4e"/>
      <use xlink:href="#ArialMT-75" transform="translate(72.216797 0)"/>
      <use xlink:href="#ArialMT-6d" transform="translate(127.832031 0)"/>
      <use xlink:href="#ArialMT-62" transform="translate(211.132812 0)"/>
      <use xlink:href="#ArialMT-65" transform="translate(266.748047 0)"/>
      <use xlink:href="#ArialMT-72" transform="translate(322.363281 0)"/>
      <use xlink:href="#ArialMT-20" transform="translate(355.664062 0)"/>
      <use xlink:href="#ArialMT-6f" transform="translate(383.447266 0)"/>
      <use xlink:href="#ArialMT-66" transform="translate(439.0625 0)"/>
      <use xlink:href="#ArialMT-20" transform="translate(466.845703 0)"/>
      <use xlink:href="#ArialMT-45" transform="translate(494.628906 0)"/>
      <use xlink:href="#ArialMT-73" transform="translate(561.328125 0)"/>
      <use xlink:href="#ArialMT-74" transform="translate(611.328125 0)"/>
      <use xlink:href="#ArialMT-69" transform="translate(639.111328 0)"/>
      <use xlink:href="#ArialMT-6d" transform="translate(661.328125 0)"/>
      <use xlink:href="#ArialMT-61" transform="translate(744.628906 0)"/>
      <use xlink:href="#ArialMT-74" transform="translate(800.244141 0)"/>
      <use xlink:href="#ArialMT-6f" transform="translate(828.027344 0)"/>
      <use xlink:href="#ArialMT-72" transform="translate(883.642578 0)"/>
      <use xlink:href="#ArialMT-73" transform="translate(916.943359 0)"/>
     </g>
    </g>
   </g>
   <g id="matplotlib.axis_4">
    <g id="ytick_7">
     <g id="line2d_27">
      <g>
       <use xlink:href="#m7bee876df1" x="714.818735" y="339.589375" style="stroke: #000000; stroke-width: 1.5"/>
      </g>
     </g>
     <g id="text_30">
      <!-- 120 -->
      <g transform="translate(667.779985 348.17875) scale(0.24 -0.24)">
       <use xlink:href="#ArialMT-31"/>
       <use xlink:href="#ArialMT-32" transform="translate(55.615234 0)"/>
       <use xlink:href="#ArialMT-30" transform="translate(111.230469 0)"/>
      </g>
     </g>
    </g>
    <g id="ytick_8">
     <g id="line2d_28">
      <g>
       <use xlink:href="#m7bee876df1" x="714.818735" y="274.829375" style="stroke: #000000; stroke-width: 1.5"/>
      </g>
     </g>
     <g id="text_31">
      <!-- 124 -->
      <g transform="translate(667.779985 283.41875) scale(0.24 -0.24)">
       <use xlink:href="#ArialMT-31"/>
       <use xlink:href="#ArialMT-32" transform="translate(55.615234 0)"/>
       <use xlink:href="#ArialMT-34" transform="translate(111.230469 0)"/>
      </g>
     </g>
    </g>
    <g id="ytick_9">
     <g id="line2d_29">
      <g>
       <use xlink:href="#m7bee876df1" x="714.818735" y="210.069375" style="stroke: #000000; stroke-width: 1.5"/>
      </g>
     </g>
     <g id="text_32">
      <!-- 128 -->
      <g transform="translate(667.779985 218.65875) scale(0.24 -0.24)">
       <use xlink:href="#ArialMT-31"/>
       <use xlink:href="#ArialMT-32" transform="translate(55.615234 0)"/>
       <use xlink:href="#ArialMT-38" transform="translate(111.230469 0)"/>
      </g>
     </g>
    </g>
    <g id="ytick_10">
     <g id="line2d_30">
      <g>
       <use xlink:href="#m7bee876df1" x="714.818735" y="145.309375" style="stroke: #000000; stroke-width: 1.5"/>
      </g>
     </g>
     <g id="text_33">
      <!-- 132 -->
      <g transform="translate(667.779985 153.89875) scale(0.24 -0.24)">
       <use xlink:href="#ArialMT-31"/>
       <use xlink:href="#ArialMT-33" transform="translate(55.615234 0)"/>
       <use xlink:href="#ArialMT-32" transform="translate(111.230469 0)"/>
      </g>
     </g>
    </g>
    <g id="ytick_11">
     <g id="line2d_31">
      <g>
       <use xlink:href="#m7bee876df1" x="714.818735" y="80.549375" style="stroke: #000000; stroke-width: 1.5"/>
      </g>
     </g>
     <g id="text_34">
      <!-- 136 -->
      <g transform="translate(667.779985 89.13875) scale(0.24 -0.24)">
       <use xlink:href="#ArialMT-31"/>
       <use xlink:href="#ArialMT-33" transform="translate(55.615234 0)"/>
       <use xlink:href="#ArialMT-36" transform="translate(111.230469 0)"/>
      </g>
     </g>
    </g>
    <g id="ytick_12">
     <g id="line2d_32">
      <g>
       <use xlink:href="#m7bee876df1" x="714.818735" y="15.789375" style="stroke: #000000; stroke-width: 1.5"/>
      </g>
     </g>
     <g id="text_35">
      <!-- 140 -->
      <g transform="translate(667.779985 24.37875) scale(0.24 -0.24)">
       <use xlink:href="#ArialMT-31"/>
       <use xlink:href="#ArialMT-34" transform="translate(55.615234 0)"/>
       <use xlink:href="#ArialMT-30" transform="translate(111.230469 0)"/>
      </g>
     </g>
    </g>
   </g>
   <g id="line2d_33">
    <path d="M 740.210669 101.221487 
L 748.966508 140.466722 
L 757.722347 179.00581 
L 766.478186 216.397536 
L 775.234025 227.339588 
L 783.989864 234.884514 
L 792.745703 229.229843 
L 801.501542 227.614178 
L 810.257381 227.526874 
L 819.01322 234.347735 
L 827.769059 235.606181 
L 836.524898 242.998653 
L 845.280737 236.659155 
L 854.036576 237.563392 
L 862.792415 239.989819 
L 871.548254 241.91325 
L 880.304093 240.37713 
L 889.059932 246.472173 
L 897.815771 247.45919 
L 906.57161 247.142437 
L 915.327449 248.347843 
L 924.083288 254.954271 
L 932.839127 253.010074 
L 941.594966 248.980532 
L 950.350805 249.735411 
L 959.106644 249.235359 
L 967.862483 249.473437 
L 976.618322 248.953684 
L 985.374161 246.269006 
L 994.13 248.905472 
L 1002.885839 247.960112 
L 1011.641678 248.547719 
L 1020.397517 250.307793 
L 1029.153356 250.483276 
L 1037.909195 253.336802 
L 1046.665034 252.386386 
L 1055.420873 253.152488 
L 1064.176712 254.202849 
L 1072.932551 252.563516 
L 1081.68839 250.529914 
L 1090.444229 250.061664 
L 1099.200068 250.720227 
L 1107.955907 248.953567 
L 1116.711746 247.657407 
L 1125.467585 247.051691 
L 1134.223424 245.725409 
L 1142.979263 245.967218 
L 1151.735102 247.443264 
L 1160.490941 248.869274 
L 1169.24678 248.010673 
L 1178.002619 248.724373 
L 1186.758458 246.280652 
L 1195.514297 246.32236 
L 1204.270136 247.119736 
L 1213.025975 246.038986 
L 1221.781814 244.618262 
L 1230.537653 244.561314 
L 1239.293492 243.531691 
L 1248.049331 242.641796 
" clip-path="url(#pe6820cfb8b)" style="fill: none; stroke: #008000; stroke-width: 1.5; stroke-linecap: square"/>
    <defs>
     <path id="me524154dfa" d="M 0 3 
C 0.795609 3 1.55874 2.683901 2.12132 2.12132 
C 2.683901 1.55874 3 0.795609 3 0 
C 3 -0.795609 2.683901 -1.55874 2.12132 -2.12132 
C 1.55874 -2.683901 0.795609 -3 0 -3 
C -0.795609 -3 -1.55874 -2.683901 -2.12132 -2.12132 
C -2.683901 -1.55874 -3 -0.795609 -3 0 
C -3 0.795609 -2.683901 1.55874 -2.12132 2.12132 
C -1.55874 2.683901 -0.795609 3 0 3 
z
" style="stroke: #008000"/>
    </defs>
    <g clip-path="url(#pe6820cfb8b)">
     <use xlink:href="#me524154dfa" x="740.210669" y="101.221487" style="fill: #008000; stroke: #008000"/>
     <use xlink:href="#me524154dfa" x="748.966508" y="140.466722" style="fill: #008000; stroke: #008000"/>
     <use xlink:href="#me524154dfa" x="757.722347" y="179.00581" style="fill: #008000; stroke: #008000"/>
     <use xlink:href="#me524154dfa" x="766.478186" y="216.397536" style="fill: #008000; stroke: #008000"/>
     <use xlink:href="#me524154dfa" x="775.234025" y="227.339588" style="fill: #008000; stroke: #008000"/>
     <use xlink:href="#me524154dfa" x="783.989864" y="234.884514" style="fill: #008000; stroke: #008000"/>
     <use xlink:href="#me524154dfa" x="792.745703" y="229.229843" style="fill: #008000; stroke: #008000"/>
     <use xlink:href="#me524154dfa" x="801.501542" y="227.614178" style="fill: #008000; stroke: #008000"/>
     <use xlink:href="#me524154dfa" x="810.257381" y="227.526874" style="fill: #008000; stroke: #008000"/>
     <use xlink:href="#me524154dfa" x="819.01322" y="234.347735" style="fill: #008000; stroke: #008000"/>
     <use xlink:href="#me524154dfa" x="827.769059" y="235.606181" style="fill: #008000; stroke: #008000"/>
     <use xlink:href="#me524154dfa" x="836.524898" y="242.998653" style="fill: #008000; stroke: #008000"/>
     <use xlink:href="#me524154dfa" x="845.280737" y="236.659155" style="fill: #008000; stroke: #008000"/>
     <use xlink:href="#me524154dfa" x="854.036576" y="237.563392" style="fill: #008000; stroke: #008000"/>
     <use xlink:href="#me524154dfa" x="862.792415" y="239.989819" style="fill: #008000; stroke: #008000"/>
     <use xlink:href="#me524154dfa" x="871.548254" y="241.91325" style="fill: #008000; stroke: #008000"/>
     <use xlink:href="#me524154dfa" x="880.304093" y="240.37713" style="fill: #008000; stroke: #008000"/>
     <use xlink:href="#me524154dfa" x="889.059932" y="246.472173" style="fill: #008000; stroke: #008000"/>
     <use xlink:href="#me524154dfa" x="897.815771" y="247.45919" style="fill: #008000; stroke: #008000"/>
     <use xlink:href="#me524154dfa" x="906.57161" y="247.142437" style="fill: #008000; stroke: #008000"/>
     <use xlink:href="#me524154dfa" x="915.327449" y="248.347843" style="fill: #008000; stroke: #008000"/>
     <use xlink:href="#me524154dfa" x="924.083288" y="254.954271" style="fill: #008000; stroke: #008000"/>
     <use xlink:href="#me524154dfa" x="932.839127" y="253.010074" style="fill: #008000; stroke: #008000"/>
     <use xlink:href="#me524154dfa" x="941.594966" y="248.980532" style="fill: #008000; stroke: #008000"/>
     <use xlink:href="#me524154dfa" x="950.350805" y="249.735411" style="fill: #008000; stroke: #008000"/>
     <use xlink:href="#me524154dfa" x="959.106644" y="249.235359" style="fill: #008000; stroke: #008000"/>
     <use xlink:href="#me524154dfa" x="967.862483" y="249.473437" style="fill: #008000; stroke: #008000"/>
     <use xlink:href="#me524154dfa" x="976.618322" y="248.953684" style="fill: #008000; stroke: #008000"/>
     <use xlink:href="#me524154dfa" x="985.374161" y="246.269006" style="fill: #008000; stroke: #008000"/>
     <use xlink:href="#me524154dfa" x="994.13" y="248.905472" style="fill: #008000; stroke: #008000"/>
     <use xlink:href="#me524154dfa" x="1002.885839" y="247.960112" style="fill: #008000; stroke: #008000"/>
     <use xlink:href="#me524154dfa" x="1011.641678" y="248.547719" style="fill: #008000; stroke: #008000"/>
     <use xlink:href="#me524154dfa" x="1020.397517" y="250.307793" style="fill: #008000; stroke: #008000"/>
     <use xlink:href="#me524154dfa" x="1029.153356" y="250.483276" style="fill: #008000; stroke: #008000"/>
     <use xlink:href="#me524154dfa" x="1037.909195" y="253.336802" style="fill: #008000; stroke: #008000"/>
     <use xlink:href="#me524154dfa" x="1046.665034" y="252.386386" style="fill: #008000; stroke: #008000"/>
     <use xlink:href="#me524154dfa" x="1055.420873" y="253.152488" style="fill: #008000; stroke: #008000"/>
     <use xlink:href="#me524154dfa" x="1064.176712" y="254.202849" style="fill: #008000; stroke: #008000"/>
     <use xlink:href="#me524154dfa" x="1072.932551" y="252.563516" style="fill: #008000; stroke: #008000"/>
     <use xlink:href="#me524154dfa" x="1081.68839" y="250.529914" style="fill: #008000; stroke: #008000"/>
     <use xlink:href="#me524154dfa" x="1090.444229" y="250.061664" style="fill: #008000; stroke: #008000"/>
     <use xlink:href="#me524154dfa" x="1099.200068" y="250.720227" style="fill: #008000; stroke: #008000"/>
     <use xlink:href="#me524154dfa" x="1107.955907" y="248.953567" style="fill: #008000; stroke: #008000"/>
     <use xlink:href="#me524154dfa" x="1116.711746" y="247.657407" style="fill: #008000; stroke: #008000"/>
     <use xlink:href="#me524154dfa" x="1125.467585" y="247.051691" style="fill: #008000; stroke: #008000"/>
     <use xlink:href="#me524154dfa" x="1134.223424" y="245.725409" style="fill: #008000; stroke: #008000"/>
     <use xlink:href="#me524154dfa" x="1142.979263" y="245.967218" style="fill: #008000; stroke: #008000"/>
     <use xlink:href="#me524154dfa" x="1151.735102" y="247.443264" style="fill: #008000; stroke: #008000"/>
     <use xlink:href="#me524154dfa" x="1160.490941" y="248.869274" style="fill: #008000; stroke: #008000"/>
     <use xlink:href="#me524154dfa" x="1169.24678" y="248.010673" style="fill: #008000; stroke: #008000"/>
     <use xlink:href="#me524154dfa" x="1178.002619" y="248.724373" style="fill: #008000; stroke: #008000"/>
     <use xlink:href="#me524154dfa" x="1186.758458" y="246.280652" style="fill: #008000; stroke: #008000"/>
     <use xlink:href="#me524154dfa" x="1195.514297" y="246.32236" style="fill: #008000; stroke: #008000"/>
     <use xlink:href="#me524154dfa" x="1204.270136" y="247.119736" style="fill: #008000; stroke: #008000"/>
     <use xlink:href="#me524154dfa" x="1213.025975" y="246.038986" style="fill: #008000; stroke: #008000"/>
     <use xlink:href="#me524154dfa" x="1221.781814" y="244.618262" style="fill: #008000; stroke: #008000"/>
     <use xlink:href="#me524154dfa" x="1230.537653" y="244.561314" style="fill: #008000; stroke: #008000"/>
     <use xlink:href="#me524154dfa" x="1239.293492" y="243.531691" style="fill: #008000; stroke: #008000"/>
     <use xlink:href="#me524154dfa" x="1248.049331" y="242.641796" style="fill: #008000; stroke: #008000"/>
    </g>
   </g>
   <g id="patch_10">
    <path d="M 714.818735 339.589375 
L 714.818735 15.789375 
" style="fill: none; stroke: #000000; stroke-width: 1.5; stroke-linejoin: miter; stroke-linecap: square"/>
   </g>
   <g id="patch_11">
    <path d="M 1273.441265 339.589375 
L 1273.441265 15.789375 
" style="fill: none; stroke: #000000; stroke-width: 1.5; stroke-linejoin: miter; stroke-linecap: square"/>
   </g>
   <g id="patch_12">
    <path d="M 714.818735 339.589375 
L 1273.441265 339.589375 
" style="fill: none; stroke: #000000; stroke-width: 1.5; stroke-linejoin: miter; stroke-linecap: square"/>
   </g>
   <g id="patch_13">
    <path d="M 714.818735 15.789375 
L 1273.441265 15.789375 
" style="fill: none; stroke: #000000; stroke-width: 1.5; stroke-linejoin: miter; stroke-linecap: square"/>
   </g>
   <g id="text_36">
    <g id="patch_14">
     <path d="M 725.991186 54.501875 
L 755.319936 54.501875 
L 755.319936 31.979375 
L 725.991186 31.979375 
z
" style="fill: #ffffff"/>
    </g>
    <!-- (e) -->
    <g transform="translate(725.991186 49.450625) scale(0.24 -0.24)">
     <use xlink:href="#ArialMT-28"/>
     <use xlink:href="#ArialMT-65" transform="translate(33.300781 0)"/>
     <use xlink:href="#ArialMT-29" transform="translate(88.916016 0)"/>
    </g>
   </g>
   <g id="legend_2">
    <g id="patch_15">
     <path d="M 1053.20064 60.08 
L 1259.441265 60.08 
Q 1263.441265 60.08 1263.441265 56.08 
L 1263.441265 29.789375 
Q 1263.441265 25.789375 1259.441265 25.789375 
L 1053.20064 25.789375 
Q 1049.20064 25.789375 1049.20064 29.789375 
L 1049.20064 56.08 
Q 1049.20064 60.08 1053.20064 60.08 
z
" style="fill: #ffffff; opacity: 0.8; stroke: #cccccc; stroke-linejoin: miter"/>
    </g>
    <g id="line2d_34">
     <path d="M 1057.20064 41.105 
L 1077.20064 41.105 
L 1097.20064 41.105 
" style="fill: none; stroke: #008000; stroke-width: 1.5; stroke-linecap: square"/>
     <g>
      <use xlink:href="#me524154dfa" x="1077.20064" y="41.105" style="fill: #008000; stroke: #008000"/>
     </g>
    </g>
    <g id="text_37">
     <!-- Num Estimators -->
     <g transform="translate(1113.20064 48.105) scale(0.2 -0.2)">
      <use xlink:href="#ArialMT-4e"/>
      <use xlink:href="#ArialMT-75" transform="translate(72.216797 0)"/>
      <use xlink:href="#ArialMT-6d" transform="translate(127.832031 0)"/>
      <use xlink:href="#ArialMT-20" transform="translate(211.132812 0)"/>
      <use xlink:href="#ArialMT-45" transform="translate(238.916016 0)"/>
      <use xlink:href="#ArialMT-73" transform="translate(305.615234 0)"/>
      <use xlink:href="#ArialMT-74" transform="translate(355.615234 0)"/>
      <use xlink:href="#ArialMT-69" transform="translate(383.398438 0)"/>
      <use xlink:href="#ArialMT-6d" transform="translate(405.615234 0)"/>
      <use xlink:href="#ArialMT-61" transform="translate(488.916016 0)"/>
      <use xlink:href="#ArialMT-74" transform="translate(544.53125 0)"/>
      <use xlink:href="#ArialMT-6f" transform="translate(572.314453 0)"/>
      <use xlink:href="#ArialMT-72" transform="translate(627.929688 0)"/>
      <use xlink:href="#ArialMT-73" transform="translate(661.230469 0)"/>
     </g>
    </g>
   </g>
  </g>
  <g id="axes_3">
   <g id="patch_16">
    <path d="M 1348.876221 339.589375 
L 1907.49875 339.589375 
L 1907.49875 15.789375 
L 1348.876221 15.789375 
z
" style="fill: #ffffff"/>
   </g>
   <g id="matplotlib.axis_5">
    <g id="xtick_19">
     <g id="line2d_35">
      <g>
       <use xlink:href="#maf6bce56b9" x="1348.876221" y="339.589375" style="stroke: #000000; stroke-width: 1.5"/>
      </g>
     </g>
     <g id="text_38">
      <!-- 0 -->
      <g transform="translate(1342.203096 363.768125) scale(0.24 -0.24)">
       <use xlink:href="#ArialMT-30"/>
      </g>
     </g>
    </g>
    <g id="xtick_20">
     <g id="line2d_36">
      <g>
       <use xlink:href="#maf6bce56b9" x="1402.332922" y="339.589375" style="stroke: #000000; stroke-width: 1.5"/>
      </g>
     </g>
     <g id="text_39">
      <!-- 1 -->
      <g transform="translate(1395.659797 363.768125) scale(0.24 -0.24)">
       <use xlink:href="#ArialMT-31"/>
      </g>
     </g>
    </g>
    <g id="xtick_21">
     <g id="line2d_37">
      <g>
       <use xlink:href="#maf6bce56b9" x="1455.789624" y="339.589375" style="stroke: #000000; stroke-width: 1.5"/>
      </g>
     </g>
     <g id="text_40">
      <!-- 2 -->
      <g transform="translate(1449.116499 363.768125) scale(0.24 -0.24)">
       <use xlink:href="#ArialMT-32"/>
      </g>
     </g>
    </g>
    <g id="xtick_22">
     <g id="line2d_38">
      <g>
       <use xlink:href="#maf6bce56b9" x="1509.246325" y="339.589375" style="stroke: #000000; stroke-width: 1.5"/>
      </g>
     </g>
     <g id="text_41">
      <!-- 3 -->
      <g transform="translate(1502.5732 363.768125) scale(0.24 -0.24)">
       <use xlink:href="#ArialMT-33"/>
      </g>
     </g>
    </g>
    <g id="xtick_23">
     <g id="line2d_39">
      <g>
       <use xlink:href="#maf6bce56b9" x="1562.703026" y="339.589375" style="stroke: #000000; stroke-width: 1.5"/>
      </g>
     </g>
     <g id="text_42">
      <!-- 4 -->
      <g transform="translate(1556.029901 363.768125) scale(0.24 -0.24)">
       <use xlink:href="#ArialMT-34"/>
      </g>
     </g>
    </g>
    <g id="xtick_24">
     <g id="line2d_40">
      <g>
       <use xlink:href="#maf6bce56b9" x="1616.159728" y="339.589375" style="stroke: #000000; stroke-width: 1.5"/>
      </g>
     </g>
     <g id="text_43">
      <!-- 5 -->
      <g transform="translate(1609.486603 363.768125) scale(0.24 -0.24)">
       <use xlink:href="#ArialMT-35"/>
      </g>
     </g>
    </g>
    <g id="xtick_25">
     <g id="line2d_41">
      <g>
       <use xlink:href="#maf6bce56b9" x="1669.616429" y="339.589375" style="stroke: #000000; stroke-width: 1.5"/>
      </g>
     </g>
     <g id="text_44">
      <!-- 6 -->
      <g transform="translate(1662.943304 363.768125) scale(0.24 -0.24)">
       <use xlink:href="#ArialMT-36"/>
      </g>
     </g>
    </g>
    <g id="xtick_26">
     <g id="line2d_42">
      <g>
       <use xlink:href="#maf6bce56b9" x="1723.07313" y="339.589375" style="stroke: #000000; stroke-width: 1.5"/>
      </g>
     </g>
     <g id="text_45">
      <!-- 7 -->
      <g transform="translate(1716.400005 363.768125) scale(0.24 -0.24)">
       <use xlink:href="#ArialMT-37"/>
      </g>
     </g>
    </g>
    <g id="xtick_27">
     <g id="line2d_43">
      <g>
       <use xlink:href="#maf6bce56b9" x="1776.529832" y="339.589375" style="stroke: #000000; stroke-width: 1.5"/>
      </g>
     </g>
     <g id="text_46">
      <!-- 8 -->
      <g transform="translate(1769.856707 363.768125) scale(0.24 -0.24)">
       <use xlink:href="#ArialMT-38"/>
      </g>
     </g>
    </g>
    <g id="xtick_28">
     <g id="line2d_44">
      <g>
       <use xlink:href="#maf6bce56b9" x="1829.986533" y="339.589375" style="stroke: #000000; stroke-width: 1.5"/>
      </g>
     </g>
     <g id="text_47">
      <!-- 9 -->
      <g transform="translate(1823.313408 363.768125) scale(0.24 -0.24)">
       <use xlink:href="#ArialMT-39"/>
      </g>
     </g>
    </g>
    <g id="xtick_29">
     <g id="line2d_45">
      <g>
       <use xlink:href="#maf6bce56b9" x="1883.443234" y="339.589375" style="stroke: #000000; stroke-width: 1.5"/>
      </g>
     </g>
     <g id="text_48">
      <!-- 10 -->
      <g transform="translate(1870.096984 363.768125) scale(0.24 -0.24)">
       <use xlink:href="#ArialMT-31"/>
       <use xlink:href="#ArialMT-30" transform="translate(55.615234 0)"/>
      </g>
     </g>
    </g>
    <g id="text_49">
     <!-- Min Samples Leaf/Min Samples Split/Max Features -->
     <g transform="translate(1356.09311 390.009375) scale(0.24 -0.24)">
      <defs>
       <path id="ArialMT-6e" d="M 422 0 
L 422 3319 
L 928 3319 
L 928 2847 
Q 1294 3394 1984 3394 
Q 2284 3394 2536 3286 
Q 2788 3178 2913 3003 
Q 3038 2828 3088 2588 
Q 3119 2431 3119 2041 
L 3119 0 
L 2556 0 
L 2556 2019 
Q 2556 2363 2490 2533 
Q 2425 2703 2258 2804 
Q 2091 2906 1866 2906 
Q 1506 2906 1245 2678 
Q 984 2450 984 1813 
L 984 0 
L 422 0 
z
" transform="scale(0.015625)"/>
       <path id="ArialMT-6c" d="M 409 0 
L 409 4581 
L 972 4581 
L 972 0 
L 409 0 
z
" transform="scale(0.015625)"/>
       <path id="ArialMT-4c" d="M 469 0 
L 469 4581 
L 1075 4581 
L 1075 541 
L 3331 541 
L 3331 0 
L 469 0 
z
" transform="scale(0.015625)"/>
       <path id="ArialMT-2f" d="M 0 -78 
L 1328 4659 
L 1778 4659 
L 453 -78 
L 0 -78 
z
" transform="scale(0.015625)"/>
       <path id="ArialMT-46" d="M 525 0 
L 525 4581 
L 3616 4581 
L 3616 4041 
L 1131 4041 
L 1131 2622 
L 3281 2622 
L 3281 2081 
L 1131 2081 
L 1131 0 
L 525 0 
z
" transform="scale(0.015625)"/>
      </defs>
      <use xlink:href="#ArialMT-4d"/>
      <use xlink:href="#ArialMT-69" transform="translate(83.300781 0)"/>
      <use xlink:href="#ArialMT-6e" transform="translate(105.517578 0)"/>
      <use xlink:href="#ArialMT-20" transform="translate(161.132812 0)"/>
      <use xlink:href="#ArialMT-53" transform="translate(188.916016 0)"/>
      <use xlink:href="#ArialMT-61" transform="translate(255.615234 0)"/>
      <use xlink:href="#ArialMT-6d" transform="translate(311.230469 0)"/>
      <use xlink:href="#ArialMT-70" transform="translate(394.53125 0)"/>
      <use xlink:href="#ArialMT-6c" transform="translate(450.146484 0)"/>
      <use xlink:href="#ArialMT-65" transform="translate(472.363281 0)"/>
      <use xlink:href="#ArialMT-73" transform="translate(527.978516 0)"/>
      <use xlink:href="#ArialMT-20" transform="translate(577.978516 0)"/>
      <use xlink:href="#ArialMT-4c" transform="translate(605.761719 0)"/>
      <use xlink:href="#ArialMT-65" transform="translate(661.376953 0)"/>
      <use xlink:href="#ArialMT-61" transform="translate(716.992188 0)"/>
      <use xlink:href="#ArialMT-66" transform="translate(772.607422 0)"/>
      <use xlink:href="#ArialMT-2f" transform="translate(800.390625 0)"/>
      <use xlink:href="#ArialMT-4d" transform="translate(828.173828 0)"/>
      <use xlink:href="#ArialMT-69" transform="translate(911.474609 0)"/>
      <use xlink:href="#ArialMT-6e" transform="translate(933.691406 0)"/>
      <use xlink:href="#ArialMT-20" transform="translate(989.306641 0)"/>
      <use xlink:href="#ArialMT-53" transform="translate(1017.089844 0)"/>
      <use xlink:href="#ArialMT-61" transform="translate(1083.789062 0)"/>
      <use xlink:href="#ArialMT-6d" transform="translate(1139.404297 0)"/>
      <use xlink:href="#ArialMT-70" transform="translate(1222.705078 0)"/>
      <use xlink:href="#ArialMT-6c" transform="translate(1278.320312 0)"/>
      <use xlink:href="#ArialMT-65" transform="translate(1300.537109 0)"/>
      <use xlink:href="#ArialMT-73" transform="translate(1356.152344 0)"/>
      <use xlink:href="#ArialMT-20" transform="translate(1406.152344 0)"/>
      <use xlink:href="#ArialMT-53" transform="translate(1433.935547 0)"/>
      <use xlink:href="#ArialMT-70" transform="translate(1500.634766 0)"/>
      <use xlink:href="#ArialMT-6c" transform="translate(1556.25 0)"/>
      <use xlink:href="#ArialMT-69" transform="translate(1578.466797 0)"/>
      <use xlink:href="#ArialMT-74" transform="translate(1600.683594 0)"/>
      <use xlink:href="#ArialMT-2f" transform="translate(1628.466797 0)"/>
      <use xlink:href="#ArialMT-4d" transform="translate(1656.25 0)"/>
      <use xlink:href="#ArialMT-61" transform="translate(1739.550781 0)"/>
      <use xlink:href="#ArialMT-78" transform="translate(1795.166016 0)"/>
      <use xlink:href="#ArialMT-20" transform="translate(1845.166016 0)"/>
      <use xlink:href="#ArialMT-46" transform="translate(1872.949219 0)"/>
      <use xlink:href="#ArialMT-65" transform="translate(1934.033203 0)"/>
      <use xlink:href="#ArialMT-61" transform="translate(1989.648438 0)"/>
      <use xlink:href="#ArialMT-74" transform="translate(2045.263672 0)"/>
      <use xlink:href="#ArialMT-75" transform="translate(2073.046875 0)"/>
      <use xlink:href="#ArialMT-72" transform="translate(2128.662109 0)"/>
      <use xlink:href="#ArialMT-65" transform="translate(2161.962891 0)"/>
      <use xlink:href="#ArialMT-73" transform="translate(2217.578125 0)"/>
     </g>
    </g>
   </g>
   <g id="matplotlib.axis_6">
    <g id="ytick_13">
     <g id="line2d_46">
      <g>
       <use xlink:href="#m7bee876df1" x="1348.876221" y="339.589375" style="stroke: #000000; stroke-width: 1.5"/>
      </g>
     </g>
     <g id="text_50">
      <!-- 100 -->
      <g transform="translate(1301.837471 348.17875) scale(0.24 -0.24)">
       <use xlink:href="#ArialMT-31"/>
       <use xlink:href="#ArialMT-30" transform="translate(55.615234 0)"/>
       <use xlink:href="#ArialMT-30" transform="translate(111.230469 0)"/>
      </g>
     </g>
    </g>
    <g id="ytick_14">
     <g id="line2d_47">
      <g>
       <use xlink:href="#m7bee876df1" x="1348.876221" y="274.829375" style="stroke: #000000; stroke-width: 1.5"/>
      </g>
     </g>
     <g id="text_51">
      <!-- 130 -->
      <g transform="translate(1301.837471 283.41875) scale(0.24 -0.24)">
       <use xlink:href="#ArialMT-31"/>
       <use xlink:href="#ArialMT-33" transform="translate(55.615234 0)"/>
       <use xlink:href="#ArialMT-30" transform="translate(111.230469 0)"/>
      </g>
     </g>
    </g>
    <g id="ytick_15">
     <g id="line2d_48">
      <g>
       <use xlink:href="#m7bee876df1" x="1348.876221" y="210.069375" style="stroke: #000000; stroke-width: 1.5"/>
      </g>
     </g>
     <g id="text_52">
      <!-- 160 -->
      <g transform="translate(1301.837471 218.65875) scale(0.24 -0.24)">
       <use xlink:href="#ArialMT-31"/>
       <use xlink:href="#ArialMT-36" transform="translate(55.615234 0)"/>
       <use xlink:href="#ArialMT-30" transform="translate(111.230469 0)"/>
      </g>
     </g>
    </g>
    <g id="ytick_16">
     <g id="line2d_49">
      <g>
       <use xlink:href="#m7bee876df1" x="1348.876221" y="145.309375" style="stroke: #000000; stroke-width: 1.5"/>
      </g>
     </g>
     <g id="text_53">
      <!-- 190 -->
      <g transform="translate(1301.837471 153.89875) scale(0.24 -0.24)">
       <use xlink:href="#ArialMT-31"/>
       <use xlink:href="#ArialMT-39" transform="translate(55.615234 0)"/>
       <use xlink:href="#ArialMT-30" transform="translate(111.230469 0)"/>
      </g>
     </g>
    </g>
    <g id="ytick_17">
     <g id="line2d_50">
      <g>
       <use xlink:href="#m7bee876df1" x="1348.876221" y="80.549375" style="stroke: #000000; stroke-width: 1.5"/>
      </g>
     </g>
     <g id="text_54">
      <!-- 220 -->
      <g transform="translate(1301.837471 89.13875) scale(0.24 -0.24)">
       <use xlink:href="#ArialMT-32"/>
       <use xlink:href="#ArialMT-32" transform="translate(55.615234 0)"/>
       <use xlink:href="#ArialMT-30" transform="translate(111.230469 0)"/>
      </g>
     </g>
    </g>
    <g id="ytick_18">
     <g id="line2d_51">
      <g>
       <use xlink:href="#m7bee876df1" x="1348.876221" y="15.789375" style="stroke: #000000; stroke-width: 1.5"/>
      </g>
     </g>
     <g id="text_55">
      <!-- 250 -->
      <g transform="translate(1301.837471 24.37875) scale(0.24 -0.24)">
       <use xlink:href="#ArialMT-32"/>
       <use xlink:href="#ArialMT-35" transform="translate(55.615234 0)"/>
       <use xlink:href="#ArialMT-30" transform="translate(111.230469 0)"/>
      </g>
     </g>
    </g>
   </g>
   <g id="line2d_52">
    <path d="M 1402.332922 284.089783 
L 1455.789624 283.916666 
L 1509.246325 283.699221 
L 1562.703026 283.194506 
L 1616.159728 281.863163 
L 1669.616429 279.686831 
L 1723.07313 276.573123 
L 1776.529832 272.383066 
L 1829.986533 267.976599 
L 1883.443234 261.920525 
" clip-path="url(#p50eb2330d4)" style="fill: none; stroke: #0000ff; stroke-width: 1.5; stroke-linecap: square"/>
    <g clip-path="url(#p50eb2330d4)">
     <use xlink:href="#mcbb7b00f8e" x="1402.332922" y="284.089783" style="fill: #0000ff; stroke: #0000ff"/>
     <use xlink:href="#mcbb7b00f8e" x="1455.789624" y="283.916666" style="fill: #0000ff; stroke: #0000ff"/>
     <use xlink:href="#mcbb7b00f8e" x="1509.246325" y="283.699221" style="fill: #0000ff; stroke: #0000ff"/>
     <use xlink:href="#mcbb7b00f8e" x="1562.703026" y="283.194506" style="fill: #0000ff; stroke: #0000ff"/>
     <use xlink:href="#mcbb7b00f8e" x="1616.159728" y="281.863163" style="fill: #0000ff; stroke: #0000ff"/>
     <use xlink:href="#mcbb7b00f8e" x="1669.616429" y="279.686831" style="fill: #0000ff; stroke: #0000ff"/>
     <use xlink:href="#mcbb7b00f8e" x="1723.07313" y="276.573123" style="fill: #0000ff; stroke: #0000ff"/>
     <use xlink:href="#mcbb7b00f8e" x="1776.529832" y="272.383066" style="fill: #0000ff; stroke: #0000ff"/>
     <use xlink:href="#mcbb7b00f8e" x="1829.986533" y="267.976599" style="fill: #0000ff; stroke: #0000ff"/>
     <use xlink:href="#mcbb7b00f8e" x="1883.443234" y="261.920525" style="fill: #0000ff; stroke: #0000ff"/>
    </g>
   </g>
   <g id="line2d_53">
    <path d="M 1455.789624 284.089783 
L 1509.246325 284.090782 
L 1562.703026 284.0509 
L 1616.159728 284.010113 
L 1669.616429 283.865968 
L 1723.07313 283.700733 
L 1776.529832 283.638234 
L 1829.986533 283.424481 
L 1883.443234 283.144485 
" clip-path="url(#p50eb2330d4)" style="fill: none; stroke: #008000; stroke-width: 1.5; stroke-linecap: square"/>
    <defs>
     <path id="mad087a21ea" d="M 0 -3 
L -3 3 
L 3 3 
z
" style="stroke: #008000; stroke-linejoin: miter"/>
    </defs>
    <g clip-path="url(#p50eb2330d4)">
     <use xlink:href="#mad087a21ea" x="1455.789624" y="284.089783" style="fill: #008000; stroke: #008000; stroke-linejoin: miter"/>
     <use xlink:href="#mad087a21ea" x="1509.246325" y="284.090782" style="fill: #008000; stroke: #008000; stroke-linejoin: miter"/>
     <use xlink:href="#mad087a21ea" x="1562.703026" y="284.0509" style="fill: #008000; stroke: #008000; stroke-linejoin: miter"/>
     <use xlink:href="#mad087a21ea" x="1616.159728" y="284.010113" style="fill: #008000; stroke: #008000; stroke-linejoin: miter"/>
     <use xlink:href="#mad087a21ea" x="1669.616429" y="283.865968" style="fill: #008000; stroke: #008000; stroke-linejoin: miter"/>
     <use xlink:href="#mad087a21ea" x="1723.07313" y="283.700733" style="fill: #008000; stroke: #008000; stroke-linejoin: miter"/>
     <use xlink:href="#mad087a21ea" x="1776.529832" y="283.638234" style="fill: #008000; stroke: #008000; stroke-linejoin: miter"/>
     <use xlink:href="#mad087a21ea" x="1829.986533" y="283.424481" style="fill: #008000; stroke: #008000; stroke-linejoin: miter"/>
     <use xlink:href="#mad087a21ea" x="1883.443234" y="283.144485" style="fill: #008000; stroke: #008000; stroke-linejoin: miter"/>
    </g>
   </g>
   <g id="line2d_54">
    <path d="M 1402.332922 101.266967 
L 1455.789624 198.105355 
L 1509.246325 229.873023 
L 1562.703026 268.480357 
L 1616.159728 282.391475 
L 1669.616429 285.175566 
L 1723.07313 290.577453 
L 1776.529832 284.089783 
" clip-path="url(#p50eb2330d4)" style="fill: none; stroke: #ff0000; stroke-width: 1.5; stroke-linecap: square"/>
    <defs>
     <path id="m88ddff4680" d="M -3 3 
L 3 3 
L 3 -3 
L -3 -3 
z
" style="stroke: #ff0000; stroke-linejoin: miter"/>
    </defs>
    <g clip-path="url(#p50eb2330d4)">
     <use xlink:href="#m88ddff4680" x="1402.332922" y="101.266967" style="fill: #ff0000; stroke: #ff0000; stroke-linejoin: miter"/>
     <use xlink:href="#m88ddff4680" x="1455.789624" y="198.105355" style="fill: #ff0000; stroke: #ff0000; stroke-linejoin: miter"/>
     <use xlink:href="#m88ddff4680" x="1509.246325" y="229.873023" style="fill: #ff0000; stroke: #ff0000; stroke-linejoin: miter"/>
     <use xlink:href="#m88ddff4680" x="1562.703026" y="268.480357" style="fill: #ff0000; stroke: #ff0000; stroke-linejoin: miter"/>
     <use xlink:href="#m88ddff4680" x="1616.159728" y="282.391475" style="fill: #ff0000; stroke: #ff0000; stroke-linejoin: miter"/>
     <use xlink:href="#m88ddff4680" x="1669.616429" y="285.175566" style="fill: #ff0000; stroke: #ff0000; stroke-linejoin: miter"/>
     <use xlink:href="#m88ddff4680" x="1723.07313" y="290.577453" style="fill: #ff0000; stroke: #ff0000; stroke-linejoin: miter"/>
     <use xlink:href="#m88ddff4680" x="1776.529832" y="284.089783" style="fill: #ff0000; stroke: #ff0000; stroke-linejoin: miter"/>
    </g>
   </g>
   <g id="patch_17">
    <path d="M 1348.876221 339.589375 
L 1348.876221 15.789375 
" style="fill: none; stroke: #000000; stroke-width: 1.5; stroke-linejoin: miter; stroke-linecap: square"/>
   </g>
   <g id="patch_18">
    <path d="M 1907.49875 339.589375 
L 1907.49875 15.789375 
" style="fill: none; stroke: #000000; stroke-width: 1.5; stroke-linejoin: miter; stroke-linecap: square"/>
   </g>
   <g id="patch_19">
    <path d="M 1348.876221 339.589375 
L 1907.49875 339.589375 
" style="fill: none; stroke: #000000; stroke-width: 1.5; stroke-linejoin: miter; stroke-linecap: square"/>
   </g>
   <g id="patch_20">
    <path d="M 1348.876221 15.789375 
L 1907.49875 15.789375 
" style="fill: none; stroke: #000000; stroke-width: 1.5; stroke-linejoin: miter; stroke-linecap: square"/>
   </g>
   <g id="text_56">
    <g id="patch_21">
     <path d="M 1360.048672 54.501875 
L 1382.698672 54.501875 
L 1382.698672 31.979375 
L 1360.048672 31.979375 
z
" style="fill: #ffffff"/>
    </g>
    <!-- (f) -->
    <g transform="translate(1360.048672 49.450625) scale(0.24 -0.24)">
     <use xlink:href="#ArialMT-28"/>
     <use xlink:href="#ArialMT-66" transform="translate(33.300781 0)"/>
     <use xlink:href="#ArialMT-29" transform="translate(61.083984 0)"/>
    </g>
   </g>
   <g id="legend_3">
    <g id="patch_22">
     <path d="M 1669.43 117.14875 
L 1893.49875 117.14875 
Q 1897.49875 117.14875 1897.49875 113.14875 
L 1897.49875 29.789375 
Q 1897.49875 25.789375 1893.49875 25.789375 
L 1669.43 25.789375 
Q 1665.43 25.789375 1665.43 29.789375 
L 1665.43 113.14875 
Q 1665.43 117.14875 1669.43 117.14875 
z
" style="fill: #ffffff; opacity: 0.8; stroke: #cccccc; stroke-linejoin: miter"/>
    </g>
    <g id="line2d_55">
     <path d="M 1673.43 41.34875 
L 1693.43 41.34875 
L 1713.43 41.34875 
" style="fill: none; stroke: #0000ff; stroke-width: 1.5; stroke-linecap: square"/>
     <g>
      <use xlink:href="#mcbb7b00f8e" x="1693.43" y="41.34875" style="fill: #0000ff; stroke: #0000ff"/>
     </g>
    </g>
    <g id="text_57">
     <!-- Min Samples Leaf -->
     <g transform="translate(1729.43 48.34875) scale(0.2 -0.2)">
      <use xlink:href="#ArialMT-4d"/>
      <use xlink:href="#ArialMT-69" transform="translate(83.300781 0)"/>
      <use xlink:href="#ArialMT-6e" transform="translate(105.517578 0)"/>
      <use xlink:href="#ArialMT-20" transform="translate(161.132812 0)"/>
      <use xlink:href="#ArialMT-53" transform="translate(188.916016 0)"/>
      <use xlink:href="#ArialMT-61" transform="translate(255.615234 0)"/>
      <use xlink:href="#ArialMT-6d" transform="translate(311.230469 0)"/>
      <use xlink:href="#ArialMT-70" transform="translate(394.53125 0)"/>
      <use xlink:href="#ArialMT-6c" transform="translate(450.146484 0)"/>
      <use xlink:href="#ArialMT-65" transform="translate(472.363281 0)"/>
      <use xlink:href="#ArialMT-73" transform="translate(527.978516 0)"/>
      <use xlink:href="#ArialMT-20" transform="translate(577.978516 0)"/>
      <use xlink:href="#ArialMT-4c" transform="translate(605.761719 0)"/>
      <use xlink:href="#ArialMT-65" transform="translate(661.376953 0)"/>
      <use xlink:href="#ArialMT-61" transform="translate(716.992188 0)"/>
      <use xlink:href="#ArialMT-66" transform="translate(772.607422 0)"/>
     </g>
    </g>
    <g id="line2d_56">
     <path d="M 1673.43 69.883125 
L 1693.43 69.883125 
L 1713.43 69.883125 
" style="fill: none; stroke: #008000; stroke-width: 1.5; stroke-linecap: square"/>
     <g>
      <use xlink:href="#mad087a21ea" x="1693.43" y="69.883125" style="fill: #008000; stroke: #008000; stroke-linejoin: miter"/>
     </g>
    </g>
    <g id="text_58">
     <!-- Min Samples Split -->
     <g transform="translate(1729.43 76.883125) scale(0.2 -0.2)">
      <use xlink:href="#ArialMT-4d"/>
      <use xlink:href="#ArialMT-69" transform="translate(83.300781 0)"/>
      <use xlink:href="#ArialMT-6e" transform="translate(105.517578 0)"/>
      <use xlink:href="#ArialMT-20" transform="translate(161.132812 0)"/>
      <use xlink:href="#ArialMT-53" transform="translate(188.916016 0)"/>
      <use xlink:href="#ArialMT-61" transform="translate(255.615234 0)"/>
      <use xlink:href="#ArialMT-6d" transform="translate(311.230469 0)"/>
      <use xlink:href="#ArialMT-70" transform="translate(394.53125 0)"/>
      <use xlink:href="#ArialMT-6c" transform="translate(450.146484 0)"/>
      <use xlink:href="#ArialMT-65" transform="translate(472.363281 0)"/>
      <use xlink:href="#ArialMT-73" transform="translate(527.978516 0)"/>
      <use xlink:href="#ArialMT-20" transform="translate(577.978516 0)"/>
      <use xlink:href="#ArialMT-53" transform="translate(605.761719 0)"/>
      <use xlink:href="#ArialMT-70" transform="translate(672.460938 0)"/>
      <use xlink:href="#ArialMT-6c" transform="translate(728.076172 0)"/>
      <use xlink:href="#ArialMT-69" transform="translate(750.292969 0)"/>
      <use xlink:href="#ArialMT-74" transform="translate(772.509766 0)"/>
     </g>
    </g>
    <g id="line2d_57">
     <path d="M 1673.43 98.17375 
L 1693.43 98.17375 
L 1713.43 98.17375 
" style="fill: none; stroke: #ff0000; stroke-width: 1.5; stroke-linecap: square"/>
     <g>
      <use xlink:href="#m88ddff4680" x="1693.43" y="98.17375" style="fill: #ff0000; stroke: #ff0000; stroke-linejoin: miter"/>
     </g>
    </g>
    <g id="text_59">
     <!-- Max Features -->
     <g transform="translate(1729.43 105.17375) scale(0.2 -0.2)">
      <use xlink:href="#ArialMT-4d"/>
      <use xlink:href="#ArialMT-61" transform="translate(83.300781 0)"/>
      <use xlink:href="#ArialMT-78" transform="translate(138.916016 0)"/>
      <use xlink:href="#ArialMT-20" transform="translate(188.916016 0)"/>
      <use xlink:href="#ArialMT-46" transform="translate(216.699219 0)"/>
      <use xlink:href="#ArialMT-65" transform="translate(277.783203 0)"/>
      <use xlink:href="#ArialMT-61" transform="translate(333.398438 0)"/>
      <use xlink:href="#ArialMT-74" transform="translate(389.013672 0)"/>
      <use xlink:href="#ArialMT-75" transform="translate(416.796875 0)"/>
      <use xlink:href="#ArialMT-72" transform="translate(472.412109 0)"/>
      <use xlink:href="#ArialMT-65" transform="translate(505.712891 0)"/>
      <use xlink:href="#ArialMT-73" transform="translate(561.328125 0)"/>
     </g>
    </g>
   </g>
  </g>
 </g>
 <defs>
  <clipPath id="p0c0971da6c">
   <rect x="80.76125" y="15.789375" width="558.622529" height="323.8"/>
  </clipPath>
  <clipPath id="pe6820cfb8b">
   <rect x="714.818735" y="15.789375" width="558.622529" height="323.8"/>
  </clipPath>
  <clipPath id="p50eb2330d4">
   <rect x="1348.876221" y="15.789375" width="558.622529" height="323.8"/>
  </clipPath>
 </defs>
</svg>
